<svg xmlns="http://www.w3.org/2000/svg" viewBox="0 0 820 340" width="820" height="340" font-family="Arial, sans-serif">

  <rect width="820" height="340" fill="#f8f8f8"/>

  <defs>
    <marker id="arr" markerWidth="10" markerHeight="7" refX="9" refY="3.5" orient="auto">
      <polygon points="0 0, 10 3.5, 0 7" fill="#111"/>
    </marker>

    <!-- Split pie: orange~45%, green~30%, purple~15%, blue~10% -->
    <symbol id="p-split" viewBox="-40 -40 80 80">
      <!-- orange: -90° to 72° (162°) -->
      <path d="M0,0 L0,-38 A38,38 0 0,1 36.1,11.7 Z" fill="#4CAF50" stroke="#111" stroke-width="2"/>
      <!-- green: 72° to 180° (108°) -->
      <path d="M0,0 L36.1,11.7 A38,38 0 0,1 -38,0 Z" fill="#F0821E" stroke="#111" stroke-width="2"/>
      <!-- purple: 180° to 234° (54°) -->
      <path d="M0,0 L-38,0 A38,38 0 0,1 -22.3,-30.7 Z" fill="#8B4FA8" stroke="#111" stroke-width="2"/>
      <!-- blue: 234° to 270° (36°) -->
      <path d="M0,0 L-22.3,-30.7 A38,38 0 0,1 0,-38 Z" fill="#4B6FCC" stroke="#111" stroke-width="2"/>
    </symbol>

    <!-- Result top: pure orange -->
    <symbol id="p-orange" viewBox="-40 -40 80 80">
      <circle r="38" fill="#F0821E" stroke="#111" stroke-width="2"/>
    </symbol>

    <!-- Coordinated pies: each has one dominant color (the winner) -->
    <!-- Blue wins -->
    <symbol id="p-blue-wins" viewBox="-40 -40 80 80">
      <circle r="38" fill="#4B6FCC" stroke="#111" stroke-width="2"/>
      <!-- small orange slice showing original split -->
      <path d="M0,0 L0,-38 A38,38 0 0,1 27,27 Z" fill="#F0821E" stroke="#111" stroke-width="1.5"/>
    </symbol>

    <!-- Green wins -->
    <symbol id="p-green-wins" viewBox="-40 -40 80 80">
      <circle r="38" fill="#4CAF50" stroke="#111" stroke-width="2"/>
      <path d="M0,0 L0,-38 A38,38 0 0,1 27,27 Z" fill="#F0821E" stroke="#111" stroke-width="1.5"/>
    </symbol>

    <!-- Purple wins -->
    <symbol id="p-purple-wins" viewBox="-40 -40 80 80">
      <circle r="38" fill="#8B4FA8" stroke="#111" stroke-width="2"/>
      <path d="M0,0 L0,-38 A38,38 0 0,1 27,27 Z" fill="#F0821E" stroke="#111" stroke-width="1.5"/>
    </symbol>

    <!-- Result circles: solid colors -->
    <symbol id="r-blue"   viewBox="-40 -40 80 80"><circle r="38" fill="#4B6FCC" stroke="#111" stroke-width="2"/></symbol>
    <symbol id="r-green"  viewBox="-40 -40 80 80"><circle r="38" fill="#4CAF50" stroke="#111" stroke-width="2"/></symbol>
    <symbol id="r-purple" viewBox="-40 -40 80 80"><circle r="38" fill="#8B4FA8" stroke="#111" stroke-width="2"/></symbol>
    <symbol id="r-green2" viewBox="-40 -40 80 80"><circle r="38" fill="#4CAF50" stroke="#111" stroke-width="2"/></symbol>
  </defs>

  <!-- ═══ TOP ROW: without coordination ═══ -->
  <text x="16" y="28" font-size="16" font-weight="bold" fill="#111">Without coordination:</text>

  <!-- 4 split pies -->
  <use href="#p-split" x="10"  y="40" width="80" height="80"/>
  <use href="#p-split" x="100" y="40" width="80" height="80"/>
  <use href="#p-split" x="190" y="40" width="80" height="80"/>
  <use href="#p-split" x="280" y="40" width="80" height="80"/>

  <!-- Arrow -->
  <line x1="378" y1="80" x2="430" y2="80" stroke="#111" stroke-width="3" marker-end="url(#arr)"/>

  <!-- 4 orange results -->
  <use href="#r-orange"   x="438" y="40" width="80" height="80"/>
  <use href="#p-orange" x="528" y="40" width="80" height="80"/>
  <use href="#p-orange" x="618" y="40" width="80" height="80"/>
  <use href="#p-orange" x="708" y="40" width="80" height="80"/>

  <text x="438" y="136" font-size="13" fill="#888" font-style="italic">The Party takes all</text>

  <!-- ═══ Divider ═══ -->
  <line x1="10" y1="158" x2="810" y2="158" stroke="#ccc" stroke-width="1.5"/>

  <!-- ═══ BOTTOM ROW: with coordination ═══ -->
  <text x="16" y="182" font-size="16" font-weight="bold" fill="#111">With SHA-256 coordinated voting:</text>

  <!-- 4 coordinated pies — each a different party "won" the coordination -->
  <use href="#p-blue-wins"   x="10"  y="196" width="80" height="80"/>
  <use href="#p-green-wins"  x="100" y="196" width="80" height="80"/>
  <use href="#p-purple-wins" x="190" y="196" width="80" height="80"/>
  <use href="#p-green-wins"  x="280" y="196" width="80" height="80"/>

  <!-- Arrow -->
  <line x1="378" y1="236" x2="430" y2="236" stroke="#111" stroke-width="3" marker-end="url(#arr)"/>

  <!-- 4 different color results — proportional to popularity -->
  <use href="#r-blue"   x="438" y="196" width="80" height="80"/>
  <use href="#r-green"  x="528" y="196" width="80" height="80"/>
  <use href="#r-purple" x="618" y="196" width="80" height="80"/>
  <use href="#r-green2" x="708" y="196" width="80" height="80"/>

  <text x="438" y="292" font-size="13" fill="#888" font-style="italic">Everyone gets a share... :)</text>

  <!-- ═══ Legend ═══ -->
  <rect x="10"  y="312" width="14" height="14" fill="#F0821E" stroke="#111" stroke-width="1"/>
  <text x="28"  y="323" font-size="12" fill="#444">Ruling party</text>
  <rect x="130" y="312" width="14" height="14" fill="#4CAF50" stroke="#111" stroke-width="1"/>
  <text x="148" y="323" font-size="12" fill="#444">Opposition A</text>
  <rect x="250" y="312" width="14" height="14" fill="#8B4FA8" stroke="#111" stroke-width="1"/>
  <text x="268" y="323" font-size="12" fill="#444">Opposition B</text>
  <rect x="370" y="312" width="14" height="14" fill="#4B6FCC" stroke="#111" stroke-width="1"/>
  <text x="388" y="323" font-size="12" fill="#444">Opposition C</text>

</svg>
